<svg id="Layer_1" xmlns="http://www.w3.org/2000/svg" viewBox="0 0 155.5 19.2"><style>.st0{fill:#fff}</style><path id="logo-voiceops" class="st0" d="M18.6.9h-2l-4.7 12.7L7.1.9h-2l6.7 17.7L18.6.9zm23.2 8.4c0-4.8-3.8-8.7-8.6-8.7s-8.7 3.8-8.7 8.6 3.8 8.7 8.6 8.7h.1c4.7 0 8.6-3.9 8.6-8.6zm-1.9 0c0 3.8-3.1 6.8-6.9 6.7-3.8 0-6.8-3.1-6.7-6.9 0-3.7 3.1-6.7 6.8-6.7 3.8 0 6.8 3.1 6.8 6.9zm12.2 8.3V.9h-1.8v16.7h1.8zm22.1-1.3V14c-1.3 1.4-3.1 2.1-5 2.2-3.7 0-6.7-3.1-6.7-6.8 0-3.7 3-6.9 6.7-6.9 2 0 3.6.9 5 2.2V2.3C72.8 1.2 71.1.6 69.3.7c-4.8-.1-8.7 3.7-8.8 8.5-.1 4.8 3.7 8.7 8.5 8.8h.2c1.7-.1 3.5-.7 5-1.7zm17 1.3v-1.7h-6.8V9.3H91V7.6h-6.6V2.7h6.8V.9h-8.6v16.7h8.6zm24.9-8.3c0-4.8-3.8-8.7-8.6-8.7s-8.7 3.8-8.7 8.6 3.8 8.7 8.6 8.7h.1c4.7 0 8.5-3.9 8.6-8.6zm-1.9 0c0 3.8-3.1 6.8-6.9 6.7-3.8 0-6.8-3.1-6.7-6.9 0-3.7 3.1-6.7 6.8-6.7 3.8 0 6.8 3.1 6.8 6.9zm19-3.7c0-1.3-.5-2.6-1.5-3.5-1.2-1-2.7-1.2-4.2-1.2h-3v16.7h1.8v-7.3h1.6c3 0 5.3-1.5 5.3-4.7zm-1.8 0c0 2.1-1.6 3-3.5 3h-1.5V2.7h1.4c1.9 0 3.6.6 3.6 2.9zm19 7.2c0-5.4-7.7-4.4-7.7-7.8 0-1.5 1.3-2.6 2.7-2.6h.1c1.4 0 2.2.7 2.8 1.8l1.5-1c-.8-1.6-2.5-2.6-4.3-2.6-2.5 0-4.7 1.7-4.7 4.3 0 4.9 7.7 4 7.7 7.9 0 1.8-1.5 3.3-3.3 3.3h-.1c-1.9 0-3-1.3-3.4-3l-1.8.5c.6 2.6 2.4 4.3 5.1 4.3 2.8.1 5.2-2.2 5.3-5l.1-.1z"/></svg>