<svg xmlns="http://www.w3.org/2000/svg" viewBox="0 0 145.3 18"><defs><style>.cls-1{fill:#222425}</style></defs><title>logo-voiceops-black</title><g id="Layer_2" data-name="Layer 2"><g id="Layer_1-2" data-name="Layer 1"><path id="logo-voiceops" class="cls-1" d="M13.5.3h-2L6.8 13 2 .3H0L6.7 18zm23.2 8.4a8.65 8.65 0 1 0-8.7 8.6h.1a8.66 8.66 0 0 0 8.6-8.6zm-1.9 0a6.8 6.8 0 0 1-13.6-.2 6.8 6.8 0 0 1 13.6.2zM47 17V.3h-1.8V17zm22.1-1.3v-2.3a7.22 7.22 0 0 1-5 2.2 6.79 6.79 0 0 1-6.7-6.8 6.87 6.87 0 0 1 6.7-6.9 7.22 7.22 0 0 1 5 2.2V1.7A7.24 7.24 0 0 0 64.2.1a8.65 8.65 0 1 0-.3 17.3h.2a10.31 10.31 0 0 0 5-1.7zm17 1.3v-1.7h-6.8V8.7h6.6V7h-6.6V2.1h6.8V.3h-8.6V17zM111 8.7a8.65 8.65 0 1 0-8.7 8.6h.1a8.73 8.73 0 0 0 8.6-8.6zm-1.9 0a6.8 6.8 0 1 1-13.6-.2 6.8 6.8 0 0 1 13.6.2zm19-3.7a4.69 4.69 0 0 0-1.5-3.5 6.29 6.29 0 0 0-4.2-1.2h-3V17h1.8V9.7h1.6c3 0 5.3-1.5 5.3-4.7zm-1.8 0c0 2.1-1.6 3-3.5 3h-1.5V2.1h1.4c1.9 0 3.6.6 3.6 2.9zm19 7.2c0-5.4-7.7-4.4-7.7-7.8a2.67 2.67 0 0 1 2.7-2.6h.1a3 3 0 0 1 2.8 1.8l1.5-1a4.81 4.81 0 0 0-4.3-2.6 4.43 4.43 0 0 0-4.7 4.3c0 4.9 7.7 4 7.7 7.9a3.33 3.33 0 0 1-3.3 3.3h-.1a3.45 3.45 0 0 1-3.4-3l-1.8.5a5.07 5.07 0 0 0 5.1 4.3 5.21 5.21 0 0 0 5.3-5l.1-.1z"/></g></g></svg>